<?xml version="1.0" encoding="UTF-8" standalone="no"?>
<!DOCTYPE svg PUBLIC "-//W3C//DTD SVG 1.1//EN"
 "http://www.w3.org/Graphics/SVG/1.1/DTD/svg11.dtd">
<!-- Generated by graphviz version 2.43.0 (0)
 -->
<!-- Title: %3 Pages: 1 -->
<svg width="617pt" height="1131pt"
 viewBox="0.00 0.00 617.37 1131.00" xmlns="http://www.w3.org/2000/svg" xmlns:xlink="http://www.w3.org/1999/xlink">
<g id="graph0" class="graph" transform="scale(1 1) rotate(0) translate(4 1127)">
<title>%3</title>
<polygon fill="white" stroke="transparent" points="-4,4 -4,-1127 613.37,-1127 613.37,4 -4,4"/>
<!-- BILLIONAIRE -->
<g id="node1" class="node">
<title>BILLIONAIRE</title>
<polygon fill="white" stroke="black" points="253.33,-364 170.33,-364 170.33,-328 253.33,-328 253.33,-364"/>
<text text-anchor="middle" x="211.83" y="-343.5" font-family="Courier,monospace" font-size="10.00">BILLIONAIRE</text>
</g>
<!-- CITIZENSHIP_OF -->
<g id="node29" class="node">
<title>CITIZENSHIP_OF</title>
<polygon fill="white" stroke="black" points="419.66,-364 335.49,-346 419.66,-328 503.82,-346 419.66,-364"/>
<text text-anchor="middle" x="419.66" y="-343.5" font-family="Courier,monospace" font-size="10.00">CITIZENSHIP_OF</text>
</g>
<!-- BILLIONAIRE&#45;&#45;CITIZENSHIP_OF -->
<g id="edge27" class="edge">
<title>BILLIONAIRE&#45;&#45;CITIZENSHIP_OF</title>
<path fill="none" stroke="black" d="M253.55,-342.95C270.11,-342.57 289.42,-342.19 306.93,-342 319.08,-341.87 331.94,-341.92 344.47,-342.08"/>
<path fill="none" stroke="transparent" d="M253.6,-344.94C270.15,-344.57 289.46,-344.19 306.95,-344 319.07,-343.87 331.93,-343.92 344.45,-344.08"/>
<path fill="none" stroke="black" d="M253.64,-346.94C270.19,-346.57 289.5,-346.19 306.97,-346 319.06,-345.87 331.92,-345.92 344.43,-346.08"/>
<text text-anchor="middle" x="310.45" y="-347" font-family="Courier,monospace" font-size="10.00">N</text>
</g>
<!-- RESIDES_IN -->
<g id="node30" class="node">
<title>RESIDES_IN</title>
<polygon fill="white" stroke="black" points="419.66,-421 355.45,-403 419.66,-385 483.86,-403 419.66,-421"/>
<text text-anchor="middle" x="419.66" y="-400.5" font-family="Courier,monospace" font-size="10.00">RESIDES_IN</text>
</g>
<!-- BILLIONAIRE&#45;&#45;RESIDES_IN -->
<g id="edge29" class="edge">
<title>BILLIONAIRE&#45;&#45;RESIDES_IN</title>
<path fill="none" stroke="black" d="M253.5,-357.26C292.63,-368.1 350.99,-384.26 386.84,-394.19"/>
<text text-anchor="middle" x="310.45" y="-375" font-family="Courier,monospace" font-size="10.00">N</text>
</g>
<!-- BILLIONAIRE_b_id -->
<g id="node2" class="node">
<title>BILLIONAIRE_b_id</title>
<ellipse fill="white" stroke="black" cx="48.86" cy="-674" rx="27" ry="18"/>
<text text-anchor="middle" x="48.86" y="-671.5" font-family="Courier,monospace" font-size="10.00">b_id</text>
</g>
<!-- BILLIONAIRE_b_id&#45;&#45;BILLIONAIRE -->
<g id="edge1" class="edge">
<title>BILLIONAIRE_b_id&#45;&#45;BILLIONAIRE</title>
<path fill="none" stroke="black" d="M73.55,-665.91C82.51,-661.66 91.94,-655.53 97.72,-647 114.9,-621.67 115.55,-397.87 134.72,-374 143.53,-363.02 157.08,-356.35 170.31,-352.29"/>
</g>
<!-- BILLIONAIRE_position -->
<g id="node3" class="node">
<title>BILLIONAIRE_position</title>
<ellipse fill="white" stroke="black" cx="48.86" cy="-620" rx="38.03" ry="18"/>
<text text-anchor="middle" x="48.86" y="-617.5" font-family="Courier,monospace" font-size="10.00">position</text>
</g>
<!-- BILLIONAIRE_position&#45;&#45;BILLIONAIRE -->
<g id="edge2" class="edge">
<title>BILLIONAIRE_position&#45;&#45;BILLIONAIRE</title>
<path fill="none" stroke="black" d="M79.4,-608.69C86.38,-604.72 93.11,-599.56 97.72,-593 111.9,-572.8 118.96,-392.99 134.72,-374 143.62,-363.27 157.02,-356.66 170.11,-352.57"/>
</g>
<!-- BILLIONAIRE_wealth -->
<g id="node4" class="node">
<title>BILLIONAIRE_wealth</title>
<ellipse fill="white" stroke="black" cx="48.86" cy="-566" rx="31.4" ry="18"/>
<text text-anchor="middle" x="48.86" y="-563.5" font-family="Courier,monospace" font-size="10.00">wealth</text>
</g>
<!-- BILLIONAIRE_wealth&#45;&#45;BILLIONAIRE -->
<g id="edge3" class="edge">
<title>BILLIONAIRE_wealth&#45;&#45;BILLIONAIRE</title>
<path fill="none" stroke="black" d="M75.68,-556.42C83.82,-552.22 92.14,-546.51 97.72,-539 120.12,-508.83 109.96,-402.26 134.72,-374 143.81,-363.62 157.1,-357.09 170.03,-352.97"/>
</g>
<!-- BILLIONAIRE_full_name -->
<g id="node5" class="node">
<title>BILLIONAIRE_full_name</title>
<ellipse fill="white" stroke="black" cx="48.86" cy="-512" rx="41.59" ry="18"/>
<text text-anchor="middle" x="48.86" y="-509.5" font-family="Courier,monospace" font-size="10.00">full_name</text>
</g>
<!-- BILLIONAIRE_full_name&#45;&#45;BILLIONAIRE -->
<g id="edge4" class="edge">
<title>BILLIONAIRE_full_name&#45;&#45;BILLIONAIRE</title>
<path fill="none" stroke="black" d="M79.73,-499.61C86.37,-495.73 92.86,-490.89 97.72,-485 114.26,-464.94 116.62,-392.67 134.72,-374 144.23,-364.2 157.46,-357.8 170.22,-353.64"/>
</g>
<!-- BILLIONAIRE_last_name -->
<g id="node6" class="node">
<title>BILLIONAIRE_last_name</title>
<ellipse fill="white" stroke="black" cx="48.86" cy="-458" rx="41.59" ry="18"/>
<text text-anchor="middle" x="48.86" y="-455.5" font-family="Courier,monospace" font-size="10.00">last_name</text>
</g>
<!-- BILLIONAIRE_last_name&#45;&#45;BILLIONAIRE -->
<g id="edge5" class="edge">
<title>BILLIONAIRE_last_name&#45;&#45;BILLIONAIRE</title>
<path fill="none" stroke="black" d="M78.23,-444.96C85.06,-441.05 92.02,-436.36 97.72,-431 119.73,-410.32 111.12,-392.84 134.72,-374 144.95,-365.83 157.79,-359.9 170,-355.66"/>
</g>
<!-- BILLIONAIRE_first_name -->
<g id="node7" class="node">
<title>BILLIONAIRE_first_name</title>
<ellipse fill="white" stroke="black" cx="48.86" cy="-404" rx="45.15" ry="18"/>
<text text-anchor="middle" x="48.86" y="-401.5" font-family="Courier,monospace" font-size="10.00">first_name</text>
</g>
<!-- BILLIONAIRE_first_name&#45;&#45;BILLIONAIRE -->
<g id="edge6" class="edge">
<title>BILLIONAIRE_first_name&#45;&#45;BILLIONAIRE</title>
<path fill="none" stroke="black" d="M83.21,-391.98C108.45,-382.89 143.22,-370.36 170.1,-360.68"/>
</g>
<!-- BILLIONAIRE_source -->
<g id="node8" class="node">
<title>BILLIONAIRE_source</title>
<ellipse fill="white" stroke="black" cx="48.86" cy="-346" rx="31.38" ry="18"/>
<ellipse fill="none" stroke="black" cx="48.86" cy="-346" rx="35.4" ry="22"/>
<text text-anchor="middle" x="48.86" y="-343.5" font-family="Courier,monospace" font-size="10.00">source</text>
</g>
<!-- BILLIONAIRE_source&#45;&#45;BILLIONAIRE -->
<g id="edge7" class="edge">
<title>BILLIONAIRE_source&#45;&#45;BILLIONAIRE</title>
<path fill="none" stroke="black" d="M84.39,-346C109.52,-346 143.63,-346 170.1,-346"/>
</g>
<!-- BILLIONAIRE_industry -->
<g id="node9" class="node">
<title>BILLIONAIRE_industry</title>
<ellipse fill="white" stroke="black" cx="48.86" cy="-288" rx="38.03" ry="18"/>
<text text-anchor="middle" x="48.86" y="-285.5" font-family="Courier,monospace" font-size="10.00">industry</text>
</g>
<!-- BILLIONAIRE_industry&#45;&#45;BILLIONAIRE -->
<g id="edge8" class="edge">
<title>BILLIONAIRE_industry&#45;&#45;BILLIONAIRE</title>
<path fill="none" stroke="black" d="M79.76,-298.77C105.22,-307.95 142.03,-321.21 170.17,-331.35"/>
</g>
<!-- BILLIONAIRE_age -->
<g id="node10" class="node">
<title>BILLIONAIRE_age</title>
<ellipse fill="none" stroke="black" stroke-dasharray="5,2" cx="48.86" cy="-234" rx="27" ry="18"/>
<text text-anchor="middle" x="48.86" y="-231.5" font-family="Courier,monospace" font-size="10.00">age</text>
</g>
<!-- BILLIONAIRE_age&#45;&#45;BILLIONAIRE -->
<g id="edge9" class="edge">
<title>BILLIONAIRE_age&#45;&#45;BILLIONAIRE</title>
<path fill="none" stroke="black" d="M70.7,-244.99C79.23,-249.68 89.09,-255.36 97.72,-261 130.41,-282.37 166.13,-309.99 188.5,-327.84"/>
</g>
<!-- BILLIONAIRE_gender -->
<g id="node11" class="node">
<title>BILLIONAIRE_gender</title>
<ellipse fill="white" stroke="black" cx="48.86" cy="-180" rx="31.4" ry="18"/>
<text text-anchor="middle" x="48.86" y="-177.5" font-family="Courier,monospace" font-size="10.00">gender</text>
</g>
<!-- BILLIONAIRE_gender&#45;&#45;BILLIONAIRE -->
<g id="edge10" class="edge">
<title>BILLIONAIRE_gender&#45;&#45;BILLIONAIRE</title>
<path fill="none" stroke="black" d="M73.88,-191.27C81.88,-195.6 90.57,-200.97 97.72,-207 141.48,-243.91 180.77,-299.57 199.41,-327.96"/>
</g>
<!-- BILLIONAIRE_birth_year -->
<g id="node12" class="node">
<title>BILLIONAIRE_birth_year</title>
<ellipse fill="white" stroke="black" cx="48.86" cy="-126" rx="45.15" ry="18"/>
<text text-anchor="middle" x="48.86" y="-123.5" font-family="Courier,monospace" font-size="10.00">birth_year</text>
</g>
<!-- BILLIONAIRE_birth_year&#45;&#45;BILLIONAIRE -->
<g id="edge11" class="edge">
<title>BILLIONAIRE_birth_year&#45;&#45;BILLIONAIRE</title>
<path fill="none" stroke="black" d="M79.4,-139.44C85.9,-143.24 92.41,-147.78 97.72,-153 151.99,-206.38 189.46,-291.16 204.05,-327.96"/>
</g>
<!-- BILLIONAIRE_birth_month -->
<g id="node13" class="node">
<title>BILLIONAIRE_birth_month</title>
<ellipse fill="white" stroke="black" cx="48.86" cy="-72" rx="48.72" ry="18"/>
<text text-anchor="middle" x="48.86" y="-69.5" font-family="Courier,monospace" font-size="10.00">birth_month</text>
</g>
<!-- BILLIONAIRE_birth_month&#45;&#45;BILLIONAIRE -->
<g id="edge12" class="edge">
<title>BILLIONAIRE_birth_month&#45;&#45;BILLIONAIRE</title>
<path fill="none" stroke="black" d="M80.79,-85.66C86.93,-89.35 92.94,-93.8 97.72,-99 162.51,-169.49 195.67,-283.5 206.63,-327.69"/>
</g>
<!-- BILLIONAIRE_birth_day -->
<g id="node14" class="node">
<title>BILLIONAIRE_birth_day</title>
<ellipse fill="white" stroke="black" cx="48.86" cy="-18" rx="41.59" ry="18"/>
<text text-anchor="middle" x="48.86" y="-15.5" font-family="Courier,monospace" font-size="10.00">birth_day</text>
</g>
<!-- BILLIONAIRE_birth_day&#45;&#45;BILLIONAIRE -->
<g id="edge13" class="edge">
<title>BILLIONAIRE_birth_day&#45;&#45;BILLIONAIRE</title>
<path fill="none" stroke="black" d="M79.58,-30.52C86.22,-34.39 92.75,-39.2 97.72,-45 173.44,-133.4 200.85,-277.47 208.42,-327.89"/>
</g>
<!-- COUNTRY -->
<g id="node15" class="node">
<title>COUNTRY</title>
<polygon fill="white" stroke="black" points="609.37,-745 550.37,-745 550.37,-709 609.37,-709 609.37,-745"/>
<text text-anchor="middle" x="579.87" y="-724.5" font-family="Courier,monospace" font-size="10.00">COUNTRY</text>
</g>
<!-- COUNTRY_c_id -->
<g id="node16" class="node">
<title>COUNTRY_c_id</title>
<ellipse fill="white" stroke="black" cx="419.66" cy="-1105" rx="27" ry="18"/>
<text text-anchor="middle" x="419.66" y="-1102.5" font-family="Courier,monospace" font-size="10.00">c_id</text>
</g>
<!-- COUNTRY_c_id&#45;&#45;COUNTRY -->
<g id="edge14" class="edge">
<title>COUNTRY_c_id&#45;&#45;COUNTRY</title>
<path fill="none" stroke="black" d="M446.65,-1103.18C465.8,-1100.51 491.22,-1093.96 507.37,-1078 555.48,-1030.47 573.45,-810.34 577.77,-745.2"/>
</g>
<!-- COUNTRY_country_name -->
<g id="node17" class="node">
<title>COUNTRY_country_name</title>
<ellipse fill="white" stroke="black" cx="419.66" cy="-1051" rx="52.28" ry="18"/>
<text text-anchor="middle" x="419.66" y="-1048.5" font-family="Courier,monospace" font-size="10.00">country_name</text>
</g>
<!-- COUNTRY_country_name&#45;&#45;COUNTRY -->
<g id="edge15" class="edge">
<title>COUNTRY_country_name&#45;&#45;COUNTRY</title>
<path fill="none" stroke="black" d="M468.37,-1044.33C482.33,-1040.36 496.69,-1034.05 507.37,-1024 548.69,-985.1 570.89,-803.69 577.06,-745.22"/>
</g>
<!-- COUNTRY_cpi -->
<g id="node18" class="node">
<title>COUNTRY_cpi</title>
<ellipse fill="white" stroke="black" cx="419.66" cy="-997" rx="27.84" ry="18"/>
<text text-anchor="middle" x="419.66" y="-994.5" font-family="Courier,monospace" font-size="10.00">cpi ?</text>
</g>
<!-- COUNTRY_cpi&#45;&#45;COUNTRY -->
<g id="edge16" class="edge">
<title>COUNTRY_cpi&#45;&#45;COUNTRY</title>
<path fill="none" stroke="black" d="M447.21,-994.81C466.14,-991.94 491.03,-985.31 507.37,-970 573,-908.52 579.4,-790.2 579.32,-745.08"/>
</g>
<!-- COUNTRY_cpi_change -->
<g id="node19" class="node">
<title>COUNTRY_cpi_change</title>
<ellipse fill="white" stroke="black" cx="419.66" cy="-943" rx="52.28" ry="18"/>
<text text-anchor="middle" x="419.66" y="-940.5" font-family="Courier,monospace" font-size="10.00">cpi_change ?</text>
</g>
<!-- COUNTRY_cpi_change&#45;&#45;COUNTRY -->
<g id="edge17" class="edge">
<title>COUNTRY_cpi_change&#45;&#45;COUNTRY</title>
<path fill="none" stroke="black" d="M468.27,-936.22C482.23,-932.26 496.61,-925.97 507.37,-916 558.06,-869.02 573.07,-782.42 577.3,-745"/>
</g>
<!-- COUNTRY_gdp -->
<g id="node20" class="node">
<title>COUNTRY_gdp</title>
<ellipse fill="white" stroke="black" cx="419.66" cy="-889" rx="27.84" ry="18"/>
<text text-anchor="middle" x="419.66" y="-886.5" font-family="Courier,monospace" font-size="10.00">gdp ?</text>
</g>
<!-- COUNTRY_gdp&#45;&#45;COUNTRY -->
<g id="edge18" class="edge">
<title>COUNTRY_gdp&#45;&#45;COUNTRY</title>
<path fill="none" stroke="black" d="M447.08,-886.15C465.7,-882.95 490.26,-876.2 507.37,-862 545.12,-830.66 565.65,-774.12 574.13,-745.16"/>
</g>
<!-- COUNTRY_g_tertiary_ed_enroll -->
<g id="node21" class="node">
<title>COUNTRY_g_tertiary_ed_enroll</title>
<ellipse fill="white" stroke="black" cx="419.66" cy="-835" rx="87.92" ry="18"/>
<text text-anchor="middle" x="419.66" y="-832.5" font-family="Courier,monospace" font-size="10.00">g_tertiary_ed_enroll ?</text>
</g>
<!-- COUNTRY_g_tertiary_ed_enroll&#45;&#45;COUNTRY -->
<g id="edge19" class="edge">
<title>COUNTRY_g_tertiary_ed_enroll&#45;&#45;COUNTRY</title>
<path fill="none" stroke="black" d="M479.07,-821.64C488.94,-818.05 498.77,-813.57 507.37,-808 532.87,-791.48 554.73,-763.43 567.34,-745.06"/>
</g>
<!-- COUNTRY_g_primary_ed_enroll -->
<g id="node22" class="node">
<title>COUNTRY_g_primary_ed_enroll</title>
<ellipse fill="white" stroke="black" cx="419.66" cy="-781" rx="84.36" ry="18"/>
<text text-anchor="middle" x="419.66" y="-778.5" font-family="Courier,monospace" font-size="10.00">g_primary_ed_enroll ?</text>
</g>
<!-- COUNTRY_g_primary_ed_enroll&#45;&#45;COUNTRY -->
<g id="edge20" class="edge">
<title>COUNTRY_g_primary_ed_enroll&#45;&#45;COUNTRY</title>
<path fill="none" stroke="black" d="M469.44,-766.37C481.85,-762.49 495.14,-758.21 507.37,-754 521.55,-749.12 537.14,-743.29 550.14,-738.29"/>
</g>
<!-- COUNTRY_life_expectancy -->
<g id="node23" class="node">
<title>COUNTRY_life_expectancy</title>
<ellipse fill="white" stroke="black" cx="419.66" cy="-727" rx="70.1" ry="18"/>
<text text-anchor="middle" x="419.66" y="-724.5" font-family="Courier,monospace" font-size="10.00">life_expectancy ?</text>
</g>
<!-- COUNTRY_life_expectancy&#45;&#45;COUNTRY -->
<g id="edge21" class="edge">
<title>COUNTRY_life_expectancy&#45;&#45;COUNTRY</title>
<path fill="none" stroke="black" d="M490.05,-727C511.14,-727 533.16,-727 550,-727"/>
</g>
<!-- COUNTRY_tax_revenue -->
<g id="node24" class="node">
<title>COUNTRY_tax_revenue</title>
<ellipse fill="white" stroke="black" cx="419.66" cy="-673" rx="55.85" ry="18"/>
<text text-anchor="middle" x="419.66" y="-670.5" font-family="Courier,monospace" font-size="10.00">tax_revenue ?</text>
</g>
<!-- COUNTRY_tax_revenue&#45;&#45;COUNTRY -->
<g id="edge22" class="edge">
<title>COUNTRY_tax_revenue&#45;&#45;COUNTRY</title>
<path fill="none" stroke="black" d="M461.4,-685.14C475.97,-689.63 492.46,-694.87 507.37,-700 521.55,-704.88 537.14,-710.71 550.14,-715.71"/>
</g>
<!-- COUNTRY_tax_rate -->
<g id="node25" class="node">
<title>COUNTRY_tax_rate</title>
<ellipse fill="white" stroke="black" cx="419.66" cy="-619" rx="45.15" ry="18"/>
<text text-anchor="middle" x="419.66" y="-616.5" font-family="Courier,monospace" font-size="10.00">tax_rate ?</text>
</g>
<!-- COUNTRY_tax_rate&#45;&#45;COUNTRY -->
<g id="edge23" class="edge">
<title>COUNTRY_tax_rate&#45;&#45;COUNTRY</title>
<path fill="none" stroke="black" d="M461.07,-626.71C476.39,-630.84 493.47,-637 507.37,-646 532.87,-662.52 554.73,-690.57 567.34,-708.94"/>
</g>
<!-- COUNTRY_pop -->
<g id="node26" class="node">
<title>COUNTRY_pop</title>
<ellipse fill="white" stroke="black" cx="419.66" cy="-565" rx="27.84" ry="18"/>
<text text-anchor="middle" x="419.66" y="-562.5" font-family="Courier,monospace" font-size="10.00">pop ?</text>
</g>
<!-- COUNTRY_pop&#45;&#45;COUNTRY -->
<g id="edge24" class="edge">
<title>COUNTRY_pop&#45;&#45;COUNTRY</title>
<path fill="none" stroke="black" d="M447.08,-567.85C465.7,-571.05 490.26,-577.8 507.37,-592 545.12,-623.34 565.65,-679.88 574.13,-708.84"/>
</g>
<!-- COUNTRY_lat -->
<g id="node27" class="node">
<title>COUNTRY_lat</title>
<ellipse fill="white" stroke="black" cx="419.66" cy="-511" rx="27.84" ry="18"/>
<text text-anchor="middle" x="419.66" y="-508.5" font-family="Courier,monospace" font-size="10.00">lat ?</text>
</g>
<!-- COUNTRY_lat&#45;&#45;COUNTRY -->
<g id="edge25" class="edge">
<title>COUNTRY_lat&#45;&#45;COUNTRY</title>
<path fill="none" stroke="black" d="M447.23,-513.16C466.18,-516.02 491.07,-522.65 507.37,-538 557.55,-585.27 572.82,-671.33 577.21,-708.78"/>
</g>
<!-- COUNTRY_long -->
<g id="node28" class="node">
<title>COUNTRY_long</title>
<ellipse fill="white" stroke="black" cx="419.66" cy="-457" rx="31.4" ry="18"/>
<text text-anchor="middle" x="419.66" y="-454.5" font-family="Courier,monospace" font-size="10.00">long ?</text>
</g>
<!-- COUNTRY_long&#45;&#45;COUNTRY -->
<g id="edge26" class="edge">
<title>COUNTRY_long&#45;&#45;COUNTRY</title>
<path fill="none" stroke="black" d="M450.67,-459.5C469.2,-462.53 492.25,-469.24 507.37,-484 571.56,-546.67 578.85,-663.77 579.16,-708.75"/>
</g>
<!-- CITIZENSHIP_OF&#45;&#45;COUNTRY -->
<g id="edge28" class="edge">
<title>CITIZENSHIP_OF&#45;&#45;COUNTRY</title>
<path fill="none" stroke="black" d="M467.17,-353.93C481.56,-358.36 496.48,-365.27 507.37,-376 555.54,-423.47 573.47,-643.64 577.77,-708.79"/>
<text text-anchor="middle" x="528.87" y="-422" font-family="Courier,monospace" font-size="10.00">1</text>
</g>
<!-- RESIDES_IN&#45;&#45;COUNTRY -->
<g id="edge30" class="edge">
<title>RESIDES_IN&#45;&#45;COUNTRY</title>
<path fill="none" stroke="black" d="M464.27,-408.65C479.45,-412.52 495.6,-419.04 507.37,-430 548.89,-468.69 570.96,-650.24 577.08,-708.76"/>
<text text-anchor="middle" x="528.87" y="-475" font-family="Courier,monospace" font-size="10.00">1</text>
</g>
<!-- RESIDES_IN_city_of_residence -->
<g id="node31" class="node">
<title>RESIDES_IN_city_of_residence</title>
<ellipse fill="white" stroke="black" cx="211.83" cy="-509" rx="77.23" ry="18"/>
<text text-anchor="middle" x="211.83" y="-506.5" font-family="Courier,monospace" font-size="10.00">city_of_residence ?</text>
</g>
<!-- RESIDES_IN_city_of_residence&#45;&#45;RESIDES_IN -->
<g id="edge31" class="edge">
<title>RESIDES_IN_city_of_residence&#45;&#45;RESIDES_IN</title>
<path fill="none" stroke="black" d="M263.45,-495.38C272.37,-491.8 281.25,-487.38 288.95,-482 313.52,-464.81 307.04,-446.71 331.95,-430 346.22,-420.43 364.06,-414.11 379.84,-410.01"/>
</g>
<!-- RESIDES_IN_residence_state -->
<g id="node32" class="node">
<title>RESIDES_IN_residence_state</title>
<ellipse fill="white" stroke="black" cx="211.83" cy="-455" rx="70.1" ry="18"/>
<text text-anchor="middle" x="211.83" y="-452.5" font-family="Courier,monospace" font-size="10.00">residence_state ?</text>
</g>
<!-- RESIDES_IN_residence_state&#45;&#45;RESIDES_IN -->
<g id="edge32" class="edge">
<title>RESIDES_IN_residence_state&#45;&#45;RESIDES_IN</title>
<path fill="none" stroke="black" d="M262.4,-442.48C300.46,-432.86 351.98,-419.84 385.27,-411.43"/>
</g>
<!-- RESIDES_IN_residence_region -->
<g id="node33" class="node">
<title>RESIDES_IN_residence_region</title>
<ellipse fill="white" stroke="black" cx="211.83" cy="-401" rx="73.67" ry="18"/>
<text text-anchor="middle" x="211.83" y="-398.5" font-family="Courier,monospace" font-size="10.00">residence_region ?</text>
</g>
<!-- RESIDES_IN_residence_region&#45;&#45;RESIDES_IN -->
<g id="edge33" class="edge">
<title>RESIDES_IN_residence_region&#45;&#45;RESIDES_IN</title>
<path fill="none" stroke="black" d="M285.4,-401.71C308.89,-401.93 334.71,-402.18 357.31,-402.4"/>
</g>
</g>
</svg>
