<?xml version="1.0" encoding="UTF-8" standalone="no"?>
<!DOCTYPE svg PUBLIC "-//W3C//DTD SVG 1.1//EN"
 "http://www.w3.org/Graphics/SVG/1.1/DTD/svg11.dtd">
<!-- Generated by graphviz version 2.43.0 (0)
 -->
<!-- Title: %3 Pages: 1 -->
<svg width="730pt" height="1070pt"
 viewBox="0.00 0.00 730.11 1070.00" xmlns="http://www.w3.org/2000/svg" xmlns:xlink="http://www.w3.org/1999/xlink">
<g id="graph0" class="graph" transform="scale(1 1) rotate(0) translate(4 1066)">
<title>%3</title>
<polygon fill="white" stroke="transparent" points="-4,4 -4,-1066 726.11,-1066 726.11,4 -4,4"/>
<!-- BILLIONAIRE -->
<g id="node1" class="node">
<title>BILLIONAIRE</title>
<polygon fill="white" stroke="black" points="408.95,-333 325.95,-333 325.95,-297 408.95,-297 408.95,-333"/>
<text text-anchor="middle" x="367.45" y="-312.5" font-family="Courier,monospace" font-size="10.00">BILLIONAIRE</text>
</g>
<!-- CITIZENSHIP_OF -->
<g id="node33" class="node">
<title>CITIZENSHIP_OF</title>
<polygon fill="white" stroke="black" points="536.03,-360 451.87,-342 536.03,-324 620.19,-342 536.03,-360"/>
<text text-anchor="middle" x="536.03" y="-339.5" font-family="Courier,monospace" font-size="10.00">CITIZENSHIP_OF</text>
</g>
<!-- BILLIONAIRE&#45;&#45;CITIZENSHIP_OF -->
<g id="edge31" class="edge">
<title>BILLIONAIRE&#45;&#45;CITIZENSHIP_OF</title>
<path fill="none" stroke="black" d="M409.52,-319.63C433.21,-323.47 463.19,-328.33 487.94,-332.34"/>
<path fill="none" stroke="transparent" d="M409.2,-321.6C432.89,-325.45 462.87,-330.3 487.62,-334.32"/>
<path fill="none" stroke="black" d="M408.88,-323.58C432.57,-327.42 462.55,-332.28 487.3,-336.29"/>
<text text-anchor="middle" x="430.45" y="-328" font-family="Courier,monospace" font-size="10.00">N</text>
</g>
<!-- RESIDES_IN -->
<g id="node34" class="node">
<title>RESIDES_IN</title>
<polygon fill="white" stroke="black" points="536.03,-306 471.83,-288 536.03,-270 600.23,-288 536.03,-306"/>
<text text-anchor="middle" x="536.03" y="-285.5" font-family="Courier,monospace" font-size="10.00">RESIDES_IN</text>
</g>
<!-- BILLIONAIRE&#45;&#45;RESIDES_IN -->
<g id="edge33" class="edge">
<title>BILLIONAIRE&#45;&#45;RESIDES_IN</title>
<path fill="none" stroke="black" d="M408.88,-306.42C434.88,-302.21 468.46,-296.76 494.38,-292.56"/>
<path fill="none" stroke="transparent" d="M409.2,-308.4C435.2,-304.18 468.78,-298.74 494.7,-294.54"/>
<path fill="none" stroke="black" d="M409.52,-310.37C435.52,-306.15 469.1,-300.71 495.02,-296.51"/>
<text text-anchor="middle" x="430.45" y="-308" font-family="Courier,monospace" font-size="10.00">N</text>
</g>
<!-- BILLIONAIRE_b_id -->
<g id="node2" class="node">
<title>BILLIONAIRE_b_id</title>
<ellipse fill="white" stroke="black" cx="211.83" cy="-620" rx="27" ry="18"/>
<text text-anchor="start" x="199.33" y="-618.5" font-family="Courier,monospace" text-decoration="underline" font-size="10.00">b_id</text>
</g>
<!-- BILLIONAIRE_b_id&#45;&#45;BILLIONAIRE -->
<g id="edge1" class="edge">
<title>BILLIONAIRE_b_id&#45;&#45;BILLIONAIRE</title>
<path fill="none" stroke="black" d="M238.63,-616.84C255.1,-613.53 275.76,-606.77 288.95,-593 360.85,-517.9 367.11,-381.9 366.9,-333.07"/>
</g>
<!-- BILLIONAIRE_position -->
<g id="node3" class="node">
<title>BILLIONAIRE_position</title>
<ellipse fill="white" stroke="black" cx="211.83" cy="-566" rx="38.03" ry="18"/>
<text text-anchor="middle" x="211.83" y="-563.5" font-family="Courier,monospace" font-size="10.00">position</text>
</g>
<!-- BILLIONAIRE_position&#45;&#45;BILLIONAIRE -->
<g id="edge2" class="edge">
<title>BILLIONAIRE_position&#45;&#45;BILLIONAIRE</title>
<path fill="none" stroke="black" d="M248.27,-560.35C262.5,-556.47 278.08,-549.95 288.95,-539 347.35,-480.14 361.83,-375.16 365.35,-333.13"/>
</g>
<!-- BILLIONAIRE_wealth -->
<g id="node4" class="node">
<title>BILLIONAIRE_wealth</title>
<ellipse fill="white" stroke="black" cx="211.83" cy="-512" rx="31.4" ry="18"/>
<text text-anchor="middle" x="211.83" y="-509.5" font-family="Courier,monospace" font-size="10.00">wealth</text>
</g>
<!-- BILLIONAIRE_wealth&#45;&#45;BILLIONAIRE -->
<g id="edge3" class="edge">
<title>BILLIONAIRE_wealth&#45;&#45;BILLIONAIRE</title>
<path fill="none" stroke="black" d="M242.08,-507.33C257.58,-503.56 276.03,-496.84 288.95,-485 335.09,-442.7 355.71,-367.56 363.06,-333.13"/>
</g>
<!-- BILLIONAIRE_full_name -->
<g id="node5" class="node">
<title>BILLIONAIRE_full_name</title>
<ellipse fill="white" stroke="black" cx="211.83" cy="-458" rx="41.59" ry="18"/>
<text text-anchor="middle" x="211.83" y="-455.5" font-family="Courier,monospace" font-size="10.00">full_name</text>
</g>
<!-- BILLIONAIRE_full_name&#45;&#45;BILLIONAIRE -->
<g id="edge4" class="edge">
<title>BILLIONAIRE_full_name&#45;&#45;BILLIONAIRE</title>
<path fill="none" stroke="black" d="M249.69,-450.1C263,-445.97 277.55,-439.87 288.95,-431 322.97,-404.52 347.15,-358.78 358.72,-333.37"/>
</g>
<!-- BILLIONAIRE_full_name_last_name -->
<g id="node6" class="node">
<title>BILLIONAIRE_full_name_last_name</title>
<ellipse fill="white" stroke="black" cx="48.86" cy="-485" rx="41.59" ry="18"/>
<text text-anchor="middle" x="48.86" y="-482.5" font-family="Courier,monospace" font-size="10.00">last_name</text>
</g>
<!-- BILLIONAIRE_full_name_last_name&#45;&#45;BILLIONAIRE_full_name -->
<g id="edge5" class="edge">
<title>BILLIONAIRE_full_name_last_name&#45;&#45;BILLIONAIRE_full_name</title>
<path fill="none" stroke="black" d="M88.01,-478.6C113.58,-474.31 147.11,-468.69 172.68,-464.4"/>
</g>
<!-- BILLIONAIRE_full_name_first_name -->
<g id="node7" class="node">
<title>BILLIONAIRE_full_name_first_name</title>
<ellipse fill="white" stroke="black" cx="48.86" cy="-431" rx="45.15" ry="18"/>
<text text-anchor="middle" x="48.86" y="-428.5" font-family="Courier,monospace" font-size="10.00">first_name</text>
</g>
<!-- BILLIONAIRE_full_name_first_name&#45;&#45;BILLIONAIRE_full_name -->
<g id="edge6" class="edge">
<title>BILLIONAIRE_full_name_first_name&#45;&#45;BILLIONAIRE_full_name</title>
<path fill="none" stroke="black" d="M90.9,-437.88C116.05,-442.1 148.02,-447.47 172.63,-451.59"/>
</g>
<!-- BILLIONAIRE_source -->
<g id="node8" class="node">
<title>BILLIONAIRE_source</title>
<ellipse fill="white" stroke="black" cx="211.83" cy="-400" rx="31.38" ry="18"/>
<ellipse fill="none" stroke="black" cx="211.83" cy="-400" rx="35.4" ry="22"/>
<text text-anchor="middle" x="211.83" y="-397.5" font-family="Courier,monospace" font-size="10.00">source</text>
</g>
<!-- BILLIONAIRE_source&#45;&#45;BILLIONAIRE -->
<g id="edge7" class="edge">
<title>BILLIONAIRE_source&#45;&#45;BILLIONAIRE</title>
<path fill="none" stroke="black" d="M243.18,-389.42C257.41,-384.01 274.4,-376.9 288.95,-369 308.11,-358.59 328.28,-344.42 343.24,-333.21"/>
</g>
<!-- BILLIONAIRE_industry -->
<g id="node9" class="node">
<title>BILLIONAIRE_industry</title>
<ellipse fill="white" stroke="black" cx="211.83" cy="-342" rx="38.03" ry="18"/>
<text text-anchor="middle" x="211.83" y="-339.5" font-family="Courier,monospace" font-size="10.00">industry</text>
</g>
<!-- BILLIONAIRE_industry&#45;&#45;BILLIONAIRE -->
<g id="edge8" class="edge">
<title>BILLIONAIRE_industry&#45;&#45;BILLIONAIRE</title>
<path fill="none" stroke="black" d="M248.08,-335.81C271.28,-331.73 301.74,-326.37 325.94,-322.12"/>
</g>
<!-- BILLIONAIRE_age -->
<g id="node10" class="node">
<title>BILLIONAIRE_age</title>
<ellipse fill="none" stroke="black" stroke-dasharray="5,2" cx="211.83" cy="-288" rx="27" ry="18"/>
<text text-anchor="middle" x="211.83" y="-285.5" font-family="Courier,monospace" font-size="10.00">age</text>
</g>
<!-- BILLIONAIRE_age&#45;&#45;BILLIONAIRE -->
<g id="edge9" class="edge">
<title>BILLIONAIRE_age&#45;&#45;BILLIONAIRE</title>
<path fill="none" stroke="black" d="M238.2,-292.46C261.97,-296.64 297.92,-302.96 325.71,-307.84"/>
</g>
<!-- BILLIONAIRE_gender -->
<g id="node11" class="node">
<title>BILLIONAIRE_gender</title>
<ellipse fill="white" stroke="black" cx="211.83" cy="-234" rx="31.4" ry="18"/>
<text text-anchor="middle" x="211.83" y="-231.5" font-family="Courier,monospace" font-size="10.00">gender</text>
</g>
<!-- BILLIONAIRE_gender&#45;&#45;BILLIONAIRE -->
<g id="edge10" class="edge">
<title>BILLIONAIRE_gender&#45;&#45;BILLIONAIRE</title>
<path fill="none" stroke="black" d="M240.34,-241.79C255.14,-246.47 273.48,-253.05 288.95,-261 308.64,-271.12 329.11,-285.58 344.07,-296.99"/>
</g>
<!-- BILLIONAIRE_birth_date -->
<g id="node12" class="node">
<title>BILLIONAIRE_birth_date</title>
<ellipse fill="white" stroke="black" cx="211.83" cy="-180" rx="45.15" ry="18"/>
<text text-anchor="middle" x="211.83" y="-177.5" font-family="Courier,monospace" font-size="10.00">birth_date</text>
</g>
<!-- BILLIONAIRE_birth_date&#45;&#45;BILLIONAIRE -->
<g id="edge11" class="edge">
<title>BILLIONAIRE_birth_date&#45;&#45;BILLIONAIRE</title>
<path fill="none" stroke="black" d="M251.86,-188.85C264.52,-192.97 278.08,-198.83 288.95,-207 321.23,-231.27 345.59,-272.83 357.78,-296.69"/>
</g>
<!-- BILLIONAIRE_birth_date_birth_year -->
<g id="node13" class="node">
<title>BILLIONAIRE_birth_date_birth_year</title>
<ellipse fill="white" stroke="black" cx="48.86" cy="-234" rx="45.15" ry="18"/>
<text text-anchor="middle" x="48.86" y="-231.5" font-family="Courier,monospace" font-size="10.00">birth_year</text>
</g>
<!-- BILLIONAIRE_birth_date_birth_year&#45;&#45;BILLIONAIRE_birth_date -->
<g id="edge12" class="edge">
<title>BILLIONAIRE_birth_date_birth_year&#45;&#45;BILLIONAIRE_birth_date</title>
<path fill="none" stroke="black" d="M84,-222.55C111.32,-213.38 149.44,-200.6 176.74,-191.44"/>
</g>
<!-- BILLIONAIRE_birth_date_birth_month -->
<g id="node14" class="node">
<title>BILLIONAIRE_birth_date_birth_month</title>
<ellipse fill="white" stroke="black" cx="48.86" cy="-180" rx="48.72" ry="18"/>
<text text-anchor="middle" x="48.86" y="-177.5" font-family="Courier,monospace" font-size="10.00">birth_month</text>
</g>
<!-- BILLIONAIRE_birth_date_birth_month&#45;&#45;BILLIONAIRE_birth_date -->
<g id="edge13" class="edge">
<title>BILLIONAIRE_birth_date_birth_month&#45;&#45;BILLIONAIRE_birth_date</title>
<path fill="none" stroke="black" d="M97.72,-180C119.5,-180 145.12,-180 166.46,-180"/>
</g>
<!-- BILLIONAIRE_birth_date_birth_day -->
<g id="node15" class="node">
<title>BILLIONAIRE_birth_date_birth_day</title>
<ellipse fill="white" stroke="black" cx="48.86" cy="-126" rx="41.59" ry="18"/>
<text text-anchor="middle" x="48.86" y="-123.5" font-family="Courier,monospace" font-size="10.00">birth_day</text>
</g>
<!-- BILLIONAIRE_birth_date_birth_day&#45;&#45;BILLIONAIRE_birth_date -->
<g id="edge14" class="edge">
<title>BILLIONAIRE_birth_date_birth_day&#45;&#45;BILLIONAIRE_birth_date</title>
<path fill="none" stroke="black" d="M82.43,-136.93C109.81,-146.11 148.82,-159.2 176.64,-168.53"/>
</g>
<!-- BILLIONAIRE_city_of_residence -->
<g id="node16" class="node">
<title>BILLIONAIRE_city_of_residence</title>
<ellipse fill="white" stroke="black" cx="211.83" cy="-126" rx="77.23" ry="18"/>
<text text-anchor="middle" x="211.83" y="-123.5" font-family="Courier,monospace" font-size="10.00">city_of_residence ?</text>
</g>
<!-- BILLIONAIRE_city_of_residence&#45;&#45;BILLIONAIRE -->
<g id="edge15" class="edge">
<title>BILLIONAIRE_city_of_residence&#45;&#45;BILLIONAIRE</title>
<path fill="none" stroke="black" d="M266.19,-138.82C274.44,-142.46 282.38,-147.09 288.95,-153 333.33,-192.94 354.68,-263.78 362.62,-296.94"/>
</g>
<!-- BILLIONAIRE_residence_state -->
<g id="node17" class="node">
<title>BILLIONAIRE_residence_state</title>
<ellipse fill="white" stroke="black" cx="211.83" cy="-72" rx="70.1" ry="18"/>
<text text-anchor="middle" x="211.83" y="-69.5" font-family="Courier,monospace" font-size="10.00">residence_state ?</text>
</g>
<!-- BILLIONAIRE_residence_state&#45;&#45;BILLIONAIRE -->
<g id="edge16" class="edge">
<title>BILLIONAIRE_residence_state&#45;&#45;BILLIONAIRE</title>
<path fill="none" stroke="black" d="M265.55,-83.75C274.16,-87.51 282.39,-92.47 288.95,-99 345.53,-155.38 361.02,-255.94 365.08,-296.9"/>
</g>
<!-- BILLIONAIRE_residence_region -->
<g id="node18" class="node">
<title>BILLIONAIRE_residence_region</title>
<ellipse fill="white" stroke="black" cx="211.83" cy="-18" rx="73.67" ry="18"/>
<text text-anchor="middle" x="211.83" y="-15.5" font-family="Courier,monospace" font-size="10.00">residence_region ?</text>
</g>
<!-- BILLIONAIRE_residence_region&#45;&#45;BILLIONAIRE -->
<g id="edge17" class="edge">
<title>BILLIONAIRE_residence_region&#45;&#45;BILLIONAIRE</title>
<path fill="none" stroke="black" d="M267.07,-29.93C275.21,-33.66 282.9,-38.57 288.95,-45 357.94,-118.36 366.06,-249.05 366.61,-296.85"/>
</g>
<!-- COUNTRY -->
<g id="node19" class="node">
<title>COUNTRY</title>
<polygon fill="white" stroke="black" points="722.11,-684 663.11,-684 663.11,-648 722.11,-648 722.11,-684"/>
<text text-anchor="middle" x="692.61" y="-663.5" font-family="Courier,monospace" font-size="10.00">COUNTRY</text>
</g>
<!-- COUNTRY_c_id -->
<g id="node20" class="node">
<title>COUNTRY_c_id</title>
<ellipse fill="white" stroke="black" cx="536.03" cy="-1044" rx="27" ry="18"/>
<text text-anchor="start" x="523.53" y="-1042.5" font-family="Courier,monospace" text-decoration="underline" font-size="10.00">c_id</text>
</g>
<!-- COUNTRY_c_id&#45;&#45;COUNTRY -->
<g id="edge18" class="edge">
<title>COUNTRY_c_id&#45;&#45;COUNTRY</title>
<path fill="none" stroke="black" d="M563.11,-1041.71C581.32,-1038.78 604.99,-1032.12 620.11,-1017 667.93,-969.17 686.11,-749.25 690.49,-684.18"/>
</g>
<!-- COUNTRY_country_name -->
<g id="node21" class="node">
<title>COUNTRY_country_name</title>
<ellipse fill="white" stroke="black" cx="536.03" cy="-990" rx="52.28" ry="18"/>
<text text-anchor="middle" x="536.03" y="-987.5" font-family="Courier,monospace" font-size="10.00">country_name</text>
</g>
<!-- COUNTRY_country_name&#45;&#45;COUNTRY -->
<g id="edge19" class="edge">
<title>COUNTRY_country_name&#45;&#45;COUNTRY</title>
<path fill="none" stroke="black" d="M584.06,-982.55C597.03,-978.55 610.23,-972.42 620.11,-963 661.19,-923.84 683.55,-742.61 689.79,-684.2"/>
</g>
<!-- COUNTRY_cpi -->
<g id="node22" class="node">
<title>COUNTRY_cpi</title>
<ellipse fill="white" stroke="black" cx="536.03" cy="-936" rx="27" ry="18"/>
<text text-anchor="middle" x="536.03" y="-933.5" font-family="Courier,monospace" font-size="10.00">cpi</text>
</g>
<!-- COUNTRY_cpi&#45;&#45;COUNTRY -->
<g id="edge20" class="edge">
<title>COUNTRY_cpi&#45;&#45;COUNTRY</title>
<path fill="none" stroke="black" d="M562.94,-933.53C581.07,-930.52 604.71,-923.83 620.11,-909 684.74,-846.78 691.77,-729.42 691.96,-684.3"/>
</g>
<!-- COUNTRY_cpi_change -->
<g id="node23" class="node">
<title>COUNTRY_cpi_change</title>
<ellipse fill="white" stroke="black" cx="536.03" cy="-882" rx="45.15" ry="18"/>
<text text-anchor="middle" x="536.03" y="-879.5" font-family="Courier,monospace" font-size="10.00">cpi_change</text>
</g>
<!-- COUNTRY_cpi_change&#45;&#45;COUNTRY -->
<g id="edge21" class="edge">
<title>COUNTRY_cpi_change&#45;&#45;COUNTRY</title>
<path fill="none" stroke="black" d="M578.87,-876C593.42,-872.09 608.89,-865.65 620.11,-855 670.13,-807.56 685.49,-721.59 689.93,-684.2"/>
</g>
<!-- COUNTRY_gdp -->
<g id="node24" class="node">
<title>COUNTRY_gdp</title>
<ellipse fill="white" stroke="black" cx="536.03" cy="-828" rx="27" ry="18"/>
<text text-anchor="middle" x="536.03" y="-825.5" font-family="Courier,monospace" font-size="10.00">gdp</text>
</g>
<!-- COUNTRY_gdp&#45;&#45;COUNTRY -->
<g id="edge22" class="edge">
<title>COUNTRY_gdp&#45;&#45;COUNTRY</title>
<path fill="none" stroke="black" d="M562.73,-824.81C580.53,-821.46 603.86,-814.66 620.11,-801 657.67,-769.43 678.29,-712.99 686.83,-684.11"/>
</g>
<!-- COUNTRY_g_tertiary_ed_enroll -->
<g id="node25" class="node">
<title>COUNTRY_g_tertiary_ed_enroll</title>
<ellipse fill="white" stroke="black" cx="536.03" cy="-774" rx="80.79" ry="18"/>
<text text-anchor="middle" x="536.03" y="-771.5" font-family="Courier,monospace" font-size="10.00">g_tertiary_ed_enroll</text>
</g>
<!-- COUNTRY_g_tertiary_ed_enroll&#45;&#45;COUNTRY -->
<g id="edge23" class="edge">
<title>COUNTRY_g_tertiary_ed_enroll&#45;&#45;COUNTRY</title>
<path fill="none" stroke="black" d="M591.69,-760.86C601.59,-757.22 611.49,-752.66 620.11,-747 645.36,-730.43 667.13,-702.66 679.81,-684.34"/>
</g>
<!-- COUNTRY_g_primary_ed_enroll -->
<g id="node26" class="node">
<title>COUNTRY_g_primary_ed_enroll</title>
<ellipse fill="white" stroke="black" cx="536.03" cy="-720" rx="77.23" ry="18"/>
<text text-anchor="middle" x="536.03" y="-717.5" font-family="Courier,monospace" font-size="10.00">g_primary_ed_enroll</text>
</g>
<!-- COUNTRY_g_primary_ed_enroll&#45;&#45;COUNTRY -->
<g id="edge24" class="edge">
<title>COUNTRY_g_primary_ed_enroll&#45;&#45;COUNTRY</title>
<path fill="none" stroke="black" d="M582.87,-705.53C595.01,-701.58 608.09,-697.22 620.11,-693 634.26,-688.03 649.85,-682.19 662.85,-677.21"/>
</g>
<!-- COUNTRY_life_expectancy -->
<g id="node27" class="node">
<title>COUNTRY_life_expectancy</title>
<ellipse fill="white" stroke="black" cx="536.03" cy="-666" rx="62.97" ry="18"/>
<text text-anchor="middle" x="536.03" y="-663.5" font-family="Courier,monospace" font-size="10.00">life_expectancy</text>
</g>
<!-- COUNTRY_life_expectancy&#45;&#45;COUNTRY -->
<g id="edge25" class="edge">
<title>COUNTRY_life_expectancy&#45;&#45;COUNTRY</title>
<path fill="none" stroke="black" d="M599.46,-666C621.41,-666 645.03,-666 662.86,-666"/>
</g>
<!-- COUNTRY_tax_revenue -->
<g id="node28" class="node">
<title>COUNTRY_tax_revenue</title>
<ellipse fill="white" stroke="black" cx="536.03" cy="-612" rx="48.72" ry="18"/>
<text text-anchor="middle" x="536.03" y="-609.5" font-family="Courier,monospace" font-size="10.00">tax_revenue</text>
</g>
<!-- COUNTRY_tax_revenue&#45;&#45;COUNTRY -->
<g id="edge26" class="edge">
<title>COUNTRY_tax_revenue&#45;&#45;COUNTRY</title>
<path fill="none" stroke="black" d="M573.96,-623.59C588.41,-628.23 605.09,-633.72 620.11,-639 634.26,-643.97 649.85,-649.81 662.85,-654.79"/>
</g>
<!-- COUNTRY_tax_rate -->
<g id="node29" class="node">
<title>COUNTRY_tax_rate</title>
<ellipse fill="white" stroke="black" cx="536.03" cy="-558" rx="38.03" ry="18"/>
<text text-anchor="middle" x="536.03" y="-555.5" font-family="Courier,monospace" font-size="10.00">tax_rate</text>
</g>
<!-- COUNTRY_tax_rate&#45;&#45;COUNTRY -->
<g id="edge27" class="edge">
<title>COUNTRY_tax_rate&#45;&#45;COUNTRY</title>
<path fill="none" stroke="black" d="M571.61,-564.84C587.28,-569.01 605.53,-575.43 620.11,-585 645.36,-601.57 667.13,-629.34 679.81,-647.66"/>
</g>
<!-- COUNTRY_pop -->
<g id="node30" class="node">
<title>COUNTRY_pop</title>
<ellipse fill="white" stroke="black" cx="536.03" cy="-504" rx="27" ry="18"/>
<text text-anchor="middle" x="536.03" y="-501.5" font-family="Courier,monospace" font-size="10.00">pop</text>
</g>
<!-- COUNTRY_pop&#45;&#45;COUNTRY -->
<g id="edge28" class="edge">
<title>COUNTRY_pop&#45;&#45;COUNTRY</title>
<path fill="none" stroke="black" d="M562.73,-507.19C580.53,-510.54 603.86,-517.34 620.11,-531 657.67,-562.57 678.29,-619.01 686.83,-647.89"/>
</g>
<!-- COUNTRY_lat -->
<g id="node31" class="node">
<title>COUNTRY_lat</title>
<ellipse fill="white" stroke="black" cx="536.03" cy="-450" rx="27" ry="18"/>
<text text-anchor="middle" x="536.03" y="-447.5" font-family="Courier,monospace" font-size="10.00">lat</text>
</g>
<!-- COUNTRY_lat&#45;&#45;COUNTRY -->
<g id="edge29" class="edge">
<title>COUNTRY_lat&#45;&#45;COUNTRY</title>
<path fill="none" stroke="black" d="M562.9,-452.52C581,-455.55 604.64,-462.24 620.11,-477 670,-524.58 685.43,-610.47 689.9,-647.83"/>
</g>
<!-- COUNTRY_long -->
<g id="node32" class="node">
<title>COUNTRY_long</title>
<ellipse fill="white" stroke="black" cx="536.03" cy="-396" rx="27" ry="18"/>
<text text-anchor="middle" x="536.03" y="-393.5" font-family="Courier,monospace" font-size="10.00">long</text>
</g>
<!-- COUNTRY_long&#45;&#45;COUNTRY -->
<g id="edge30" class="edge">
<title>COUNTRY_long&#45;&#45;COUNTRY</title>
<path fill="none" stroke="black" d="M563.06,-398.35C581.24,-401.3 604.9,-407.97 620.11,-423 683.91,-486.07 691.43,-602.93 691.86,-647.8"/>
</g>
<!-- CITIZENSHIP_OF&#45;&#45;COUNTRY -->
<g id="edge32" class="edge">
<title>CITIZENSHIP_OF&#45;&#45;COUNTRY</title>
<path fill="none" stroke="black" d="M585.5,-347.85C598.44,-351.95 611.28,-358.01 621.49,-367.55 663.27,-407.81 685.57,-589.11 691.78,-647.58"/>
<path fill="none" stroke="transparent" d="M584.9,-349.76C597.58,-353.76 610.43,-359.82 620.11,-369 661.29,-408.05 683.59,-589.35 689.79,-647.79"/>
<path fill="none" stroke="black" d="M584.3,-351.66C596.73,-355.56 609.57,-361.62 618.74,-370.45 659.3,-408.29 681.6,-589.6 687.81,-648.01"/>
<text text-anchor="middle" x="641.61" y="-414" font-family="Courier,monospace" font-size="10.00">1</text>
</g>
<!-- RESIDES_IN&#45;&#45;COUNTRY -->
<g id="edge34" class="edge">
<title>RESIDES_IN&#45;&#45;COUNTRY</title>
<path fill="none" stroke="black" d="M579.41,-294C593.85,-297.9 609.1,-304.35 620.11,-315 668.73,-362.02 686.35,-582.51 690.55,-647.76"/>
<text text-anchor="middle" x="641.61" y="-360" font-family="Courier,monospace" font-size="10.00">1</text>
</g>
</g>
</svg>
