<?xml version="1.0" encoding="UTF-8" standalone="no"?>
<!DOCTYPE svg PUBLIC "-//W3C//DTD SVG 1.1//EN"
 "http://www.w3.org/Graphics/SVG/1.1/DTD/svg11.dtd">
<!-- Generated by graphviz version 2.43.0 (0)
 -->
<!-- Title: %3 Pages: 1 -->
<svg width="631pt" height="1131pt"
 viewBox="0.00 0.00 631.50 1131.00" xmlns="http://www.w3.org/2000/svg" xmlns:xlink="http://www.w3.org/1999/xlink">
<g id="graph0" class="graph" transform="scale(1 1) rotate(0) translate(4 1127)">
<title>%3</title>
<polygon fill="white" stroke="transparent" points="-4,4 -4,-1127 627.5,-1127 627.5,4 -4,4"/>
<!-- BILLIONAIRE -->
<g id="node1" class="node">
<title>BILLIONAIRE</title>
<polygon fill="white" stroke="black" points="267.46,-364 184.46,-364 184.46,-328 267.46,-328 267.46,-364"/>
<text text-anchor="middle" x="225.96" y="-343.5" font-family="Courier,monospace" font-size="10.00">BILLIONAIRE</text>
</g>
<!-- CITIZENSHIP_OF -->
<g id="node29" class="node">
<title>CITIZENSHIP_OF</title>
<polygon fill="white" stroke="black" points="433.79,-364 349.62,-346 433.79,-328 517.95,-346 433.79,-364"/>
<text text-anchor="middle" x="433.79" y="-343.5" font-family="Courier,monospace" font-size="10.00">CITIZENSHIP_OF</text>
</g>
<!-- BILLIONAIRE&#45;&#45;CITIZENSHIP_OF -->
<g id="edge27" class="edge">
<title>BILLIONAIRE&#45;&#45;CITIZENSHIP_OF</title>
<path fill="none" stroke="black" d="M267.68,-342.95C284.24,-342.57 303.55,-342.19 321.05,-342 333.21,-341.87 346.07,-341.92 358.6,-342.08"/>
<path fill="none" stroke="transparent" d="M267.72,-344.94C284.28,-344.57 303.59,-344.19 321.08,-344 333.2,-343.87 346.06,-343.92 358.58,-344.08"/>
<path fill="none" stroke="black" d="M267.77,-346.94C284.32,-346.57 303.63,-346.19 321.1,-346 333.19,-345.87 346.05,-345.92 358.55,-346.08"/>
<text text-anchor="middle" x="324.58" y="-347" font-family="Courier,monospace" font-size="10.00">N</text>
</g>
<!-- RESIDES_IN -->
<g id="node30" class="node">
<title>RESIDES_IN</title>
<polygon fill="white" stroke="black" points="433.79,-421 369.58,-403 433.79,-385 497.99,-403 433.79,-421"/>
<text text-anchor="middle" x="433.79" y="-400.5" font-family="Courier,monospace" font-size="10.00">RESIDES_IN</text>
</g>
<!-- BILLIONAIRE&#45;&#45;RESIDES_IN -->
<g id="edge29" class="edge">
<title>BILLIONAIRE&#45;&#45;RESIDES_IN</title>
<path fill="none" stroke="black" d="M267.63,-357.26C306.76,-368.1 365.12,-384.26 400.97,-394.19"/>
<text text-anchor="middle" x="324.58" y="-375" font-family="Courier,monospace" font-size="10.00">N</text>
</g>
<!-- BILLIONAIRE_b_id -->
<g id="node2" class="node">
<title>BILLIONAIRE_b_id</title>
<ellipse fill="white" stroke="black" cx="55.92" cy="-674" rx="27" ry="18"/>
<text text-anchor="middle" x="55.92" y="-671.5" font-family="Courier,monospace" font-size="10.00">b_id</text>
</g>
<!-- BILLIONAIRE_b_id&#45;&#45;BILLIONAIRE -->
<g id="edge1" class="edge">
<title>BILLIONAIRE_b_id&#45;&#45;BILLIONAIRE</title>
<path fill="none" stroke="black" d="M81.49,-667.68C92.48,-663.59 104.58,-657.09 111.85,-647 129.74,-622.16 129.68,-397.87 148.85,-374 157.66,-363.02 171.2,-356.35 184.44,-352.29"/>
</g>
<!-- BILLIONAIRE_position -->
<g id="node3" class="node">
<title>BILLIONAIRE_position</title>
<ellipse fill="white" stroke="black" cx="55.92" cy="-620" rx="38.03" ry="18"/>
<text text-anchor="middle" x="55.92" y="-617.5" font-family="Courier,monospace" font-size="10.00">position</text>
</g>
<!-- BILLIONAIRE_position&#45;&#45;BILLIONAIRE -->
<g id="edge2" class="edge">
<title>BILLIONAIRE_position&#45;&#45;BILLIONAIRE</title>
<path fill="none" stroke="black" d="M88.76,-610.47C97.46,-606.4 106.07,-600.75 111.85,-593 126.6,-573.22 133.08,-392.99 148.85,-374 157.75,-363.27 171.15,-356.66 184.24,-352.57"/>
</g>
<!-- BILLIONAIRE_wealth -->
<g id="node4" class="node">
<title>BILLIONAIRE_wealth</title>
<ellipse fill="white" stroke="black" cx="55.92" cy="-566" rx="31.4" ry="18"/>
<text text-anchor="middle" x="55.92" y="-563.5" font-family="Courier,monospace" font-size="10.00">wealth</text>
</g>
<!-- BILLIONAIRE_wealth&#45;&#45;BILLIONAIRE -->
<g id="edge3" class="edge">
<title>BILLIONAIRE_wealth&#45;&#45;BILLIONAIRE</title>
<path fill="none" stroke="black" d="M84.22,-558.17C94.26,-554 104.88,-547.85 111.85,-539 135.1,-509.48 124.08,-402.26 148.85,-374 157.94,-363.62 171.22,-357.09 184.16,-352.97"/>
</g>
<!-- BILLIONAIRE_full_name -->
<g id="node5" class="node">
<title>BILLIONAIRE_full_name</title>
<ellipse fill="white" stroke="black" cx="55.92" cy="-512" rx="41.59" ry="18"/>
<text text-anchor="middle" x="55.92" y="-509.5" font-family="Courier,monospace" font-size="10.00">full_name</text>
</g>
<!-- BILLIONAIRE_full_name&#45;&#45;BILLIONAIRE -->
<g id="edge4" class="edge">
<title>BILLIONAIRE_full_name&#45;&#45;BILLIONAIRE</title>
<path fill="none" stroke="black" d="M89.46,-501.2C97.67,-497.19 105.84,-491.88 111.85,-485 128.95,-465.42 130.75,-392.67 148.85,-374 158.35,-364.2 171.58,-357.8 184.35,-353.64"/>
</g>
<!-- BILLIONAIRE_last_name -->
<g id="node6" class="node">
<title>BILLIONAIRE_last_name</title>
<ellipse fill="white" stroke="black" cx="55.92" cy="-458" rx="41.59" ry="18"/>
<text text-anchor="middle" x="55.92" y="-455.5" font-family="Courier,monospace" font-size="10.00">last_name</text>
</g>
<!-- BILLIONAIRE_last_name&#45;&#45;BILLIONAIRE -->
<g id="edge5" class="edge">
<title>BILLIONAIRE_last_name&#45;&#45;BILLIONAIRE</title>
<path fill="none" stroke="black" d="M88.09,-446.26C96.38,-442.22 104.93,-437.14 111.85,-431 134.43,-410.95 125.24,-392.84 148.85,-374 159.08,-365.83 171.92,-359.9 184.13,-355.66"/>
</g>
<!-- BILLIONAIRE_first_name -->
<g id="node7" class="node">
<title>BILLIONAIRE_first_name</title>
<ellipse fill="white" stroke="black" cx="55.92" cy="-404" rx="52.28" ry="18"/>
<text text-anchor="middle" x="55.92" y="-401.5" font-family="Courier,monospace" font-size="10.00">first_name ?</text>
</g>
<!-- BILLIONAIRE_first_name&#45;&#45;BILLIONAIRE -->
<g id="edge6" class="edge">
<title>BILLIONAIRE_first_name&#45;&#45;BILLIONAIRE</title>
<path fill="none" stroke="black" d="M93.38,-391.41C120.22,-382.15 156.7,-369.56 184.45,-359.98"/>
</g>
<!-- BILLIONAIRE_source -->
<g id="node8" class="node">
<title>BILLIONAIRE_source</title>
<ellipse fill="white" stroke="black" cx="55.92" cy="-346" rx="31.38" ry="18"/>
<ellipse fill="none" stroke="black" cx="55.92" cy="-346" rx="35.4" ry="22"/>
<text text-anchor="middle" x="55.92" y="-343.5" font-family="Courier,monospace" font-size="10.00">source</text>
</g>
<!-- BILLIONAIRE_source&#45;&#45;BILLIONAIRE -->
<g id="edge7" class="edge">
<title>BILLIONAIRE_source&#45;&#45;BILLIONAIRE</title>
<path fill="none" stroke="black" d="M91.33,-346C118.31,-346 155.93,-346 184.38,-346"/>
</g>
<!-- BILLIONAIRE_industry -->
<g id="node9" class="node">
<title>BILLIONAIRE_industry</title>
<ellipse fill="white" stroke="black" cx="55.92" cy="-288" rx="38.03" ry="18"/>
<text text-anchor="middle" x="55.92" y="-285.5" font-family="Courier,monospace" font-size="10.00">industry</text>
</g>
<!-- BILLIONAIRE_industry&#45;&#45;BILLIONAIRE -->
<g id="edge8" class="edge">
<title>BILLIONAIRE_industry&#45;&#45;BILLIONAIRE</title>
<path fill="none" stroke="black" d="M87.35,-298.5C114.5,-307.87 154.45,-321.66 184.32,-331.97"/>
</g>
<!-- BILLIONAIRE_age -->
<g id="node10" class="node">
<title>BILLIONAIRE_age</title>
<ellipse fill="none" stroke="black" stroke-dasharray="5,2" cx="55.92" cy="-234" rx="27" ry="18"/>
<text text-anchor="middle" x="55.92" y="-231.5" font-family="Courier,monospace" font-size="10.00">age</text>
</g>
<!-- BILLIONAIRE_age&#45;&#45;BILLIONAIRE -->
<g id="edge9" class="edge">
<title>BILLIONAIRE_age&#45;&#45;BILLIONAIRE</title>
<path fill="none" stroke="black" d="M78.81,-243.61C89.08,-248.4 101.34,-254.55 111.85,-261 145.34,-281.57 181.15,-309.63 203.3,-327.78"/>
</g>
<!-- BILLIONAIRE_gender -->
<g id="node11" class="node">
<title>BILLIONAIRE_gender</title>
<ellipse fill="white" stroke="black" cx="55.92" cy="-180" rx="31.4" ry="18"/>
<text text-anchor="middle" x="55.92" y="-177.5" font-family="Courier,monospace" font-size="10.00">gender</text>
</g>
<!-- BILLIONAIRE_gender&#45;&#45;BILLIONAIRE -->
<g id="edge10" class="edge">
<title>BILLIONAIRE_gender&#45;&#45;BILLIONAIRE</title>
<path fill="none" stroke="black" d="M82.32,-189.72C92.1,-194.15 103.03,-199.99 111.85,-207 156.64,-242.65 195.48,-298.86 213.78,-327.66"/>
</g>
<!-- BILLIONAIRE_birth_year -->
<g id="node12" class="node">
<title>BILLIONAIRE_birth_year</title>
<ellipse fill="white" stroke="black" cx="55.92" cy="-126" rx="52.28" ry="18"/>
<text text-anchor="middle" x="55.92" y="-123.5" font-family="Courier,monospace" font-size="10.00">birth_year ?</text>
</g>
<!-- BILLIONAIRE_birth_year&#45;&#45;BILLIONAIRE -->
<g id="edge11" class="edge">
<title>BILLIONAIRE_birth_year&#45;&#45;BILLIONAIRE</title>
<path fill="none" stroke="black" d="M91.71,-139.27C98.88,-143.01 106.01,-147.58 111.85,-153 167.75,-204.95 204.48,-290.86 218.53,-327.99"/>
</g>
<!-- BILLIONAIRE_birth_month -->
<g id="node13" class="node">
<title>BILLIONAIRE_birth_month</title>
<ellipse fill="white" stroke="black" cx="55.92" cy="-72" rx="55.85" ry="18"/>
<text text-anchor="middle" x="55.92" y="-69.5" font-family="Courier,monospace" font-size="10.00">birth_month ?</text>
</g>
<!-- BILLIONAIRE_birth_month&#45;&#45;BILLIONAIRE -->
<g id="edge12" class="edge">
<title>BILLIONAIRE_birth_month&#45;&#45;BILLIONAIRE</title>
<path fill="none" stroke="black" d="M93.27,-85.45C100.02,-89.11 106.59,-93.59 111.85,-99 178.78,-167.79 210.78,-283.3 221.08,-327.78"/>
</g>
<!-- BILLIONAIRE_birth_day -->
<g id="node14" class="node">
<title>BILLIONAIRE_birth_day</title>
<ellipse fill="white" stroke="black" cx="55.92" cy="-18" rx="48.72" ry="18"/>
<text text-anchor="middle" x="55.92" y="-15.5" font-family="Courier,monospace" font-size="10.00">birth_day ?</text>
</g>
<!-- BILLIONAIRE_birth_day&#45;&#45;BILLIONAIRE -->
<g id="edge13" class="edge">
<title>BILLIONAIRE_birth_day&#45;&#45;BILLIONAIRE</title>
<path fill="none" stroke="black" d="M91.87,-30.25C99.19,-34.08 106.35,-38.94 111.85,-45 190.04,-131.21 215.9,-276.66 222.8,-327.66"/>
</g>
<!-- COUNTRY -->
<g id="node15" class="node">
<title>COUNTRY</title>
<polygon fill="white" stroke="black" points="623.5,-745 564.5,-745 564.5,-709 623.5,-709 623.5,-745"/>
<text text-anchor="middle" x="594" y="-724.5" font-family="Courier,monospace" font-size="10.00">COUNTRY</text>
</g>
<!-- COUNTRY_c_id -->
<g id="node16" class="node">
<title>COUNTRY_c_id</title>
<ellipse fill="white" stroke="black" cx="433.79" cy="-1105" rx="27" ry="18"/>
<text text-anchor="middle" x="433.79" y="-1102.5" font-family="Courier,monospace" font-size="10.00">c_id</text>
</g>
<!-- COUNTRY_c_id&#45;&#45;COUNTRY -->
<g id="edge14" class="edge">
<title>COUNTRY_c_id&#45;&#45;COUNTRY</title>
<path fill="none" stroke="black" d="M460.78,-1103.18C479.93,-1100.51 505.35,-1093.96 521.5,-1078 569.61,-1030.47 587.58,-810.34 591.9,-745.2"/>
</g>
<!-- COUNTRY_country_name -->
<g id="node17" class="node">
<title>COUNTRY_country_name</title>
<ellipse fill="white" stroke="black" cx="433.79" cy="-1051" rx="52.28" ry="18"/>
<text text-anchor="middle" x="433.79" y="-1048.5" font-family="Courier,monospace" font-size="10.00">country_name</text>
</g>
<!-- COUNTRY_country_name&#45;&#45;COUNTRY -->
<g id="edge15" class="edge">
<title>COUNTRY_country_name&#45;&#45;COUNTRY</title>
<path fill="none" stroke="black" d="M482.5,-1044.33C496.46,-1040.36 510.82,-1034.05 521.5,-1024 562.81,-985.1 585.02,-803.69 591.19,-745.22"/>
</g>
<!-- COUNTRY_cpi -->
<g id="node18" class="node">
<title>COUNTRY_cpi</title>
<ellipse fill="white" stroke="black" cx="433.79" cy="-997" rx="27.84" ry="18"/>
<text text-anchor="middle" x="433.79" y="-994.5" font-family="Courier,monospace" font-size="10.00">cpi ?</text>
</g>
<!-- COUNTRY_cpi&#45;&#45;COUNTRY -->
<g id="edge16" class="edge">
<title>COUNTRY_cpi&#45;&#45;COUNTRY</title>
<path fill="none" stroke="black" d="M461.34,-994.81C480.27,-991.94 505.16,-985.31 521.5,-970 587.13,-908.52 593.53,-790.2 593.45,-745.08"/>
</g>
<!-- COUNTRY_cpi_change -->
<g id="node19" class="node">
<title>COUNTRY_cpi_change</title>
<ellipse fill="white" stroke="black" cx="433.79" cy="-943" rx="52.28" ry="18"/>
<text text-anchor="middle" x="433.79" y="-940.5" font-family="Courier,monospace" font-size="10.00">cpi_change ?</text>
</g>
<!-- COUNTRY_cpi_change&#45;&#45;COUNTRY -->
<g id="edge17" class="edge">
<title>COUNTRY_cpi_change&#45;&#45;COUNTRY</title>
<path fill="none" stroke="black" d="M482.4,-936.22C496.36,-932.26 510.74,-925.97 521.5,-916 572.19,-869.02 587.2,-782.42 591.43,-745"/>
</g>
<!-- COUNTRY_gdp -->
<g id="node20" class="node">
<title>COUNTRY_gdp</title>
<ellipse fill="white" stroke="black" cx="433.79" cy="-889" rx="27.84" ry="18"/>
<text text-anchor="middle" x="433.79" y="-886.5" font-family="Courier,monospace" font-size="10.00">gdp ?</text>
</g>
<!-- COUNTRY_gdp&#45;&#45;COUNTRY -->
<g id="edge18" class="edge">
<title>COUNTRY_gdp&#45;&#45;COUNTRY</title>
<path fill="none" stroke="black" d="M461.2,-886.15C479.82,-882.95 504.39,-876.2 521.5,-862 559.25,-830.66 579.78,-774.12 588.26,-745.16"/>
</g>
<!-- COUNTRY_g_tertiary_ed_enroll -->
<g id="node21" class="node">
<title>COUNTRY_g_tertiary_ed_enroll</title>
<ellipse fill="white" stroke="black" cx="433.79" cy="-835" rx="87.92" ry="18"/>
<text text-anchor="middle" x="433.79" y="-832.5" font-family="Courier,monospace" font-size="10.00">g_tertiary_ed_enroll ?</text>
</g>
<!-- COUNTRY_g_tertiary_ed_enroll&#45;&#45;COUNTRY -->
<g id="edge19" class="edge">
<title>COUNTRY_g_tertiary_ed_enroll&#45;&#45;COUNTRY</title>
<path fill="none" stroke="black" d="M493.2,-821.64C503.07,-818.05 512.9,-813.57 521.5,-808 547,-791.48 568.86,-763.43 581.47,-745.06"/>
</g>
<!-- COUNTRY_g_primary_ed_enroll -->
<g id="node22" class="node">
<title>COUNTRY_g_primary_ed_enroll</title>
<ellipse fill="white" stroke="black" cx="433.79" cy="-781" rx="84.36" ry="18"/>
<text text-anchor="middle" x="433.79" y="-778.5" font-family="Courier,monospace" font-size="10.00">g_primary_ed_enroll ?</text>
</g>
<!-- COUNTRY_g_primary_ed_enroll&#45;&#45;COUNTRY -->
<g id="edge20" class="edge">
<title>COUNTRY_g_primary_ed_enroll&#45;&#45;COUNTRY</title>
<path fill="none" stroke="black" d="M483.56,-766.37C495.98,-762.49 509.27,-758.21 521.5,-754 535.67,-749.12 551.27,-743.29 564.26,-738.29"/>
</g>
<!-- COUNTRY_life_expectancy -->
<g id="node23" class="node">
<title>COUNTRY_life_expectancy</title>
<ellipse fill="white" stroke="black" cx="433.79" cy="-727" rx="70.1" ry="18"/>
<text text-anchor="middle" x="433.79" y="-724.5" font-family="Courier,monospace" font-size="10.00">life_expectancy ?</text>
</g>
<!-- COUNTRY_life_expectancy&#45;&#45;COUNTRY -->
<g id="edge21" class="edge">
<title>COUNTRY_life_expectancy&#45;&#45;COUNTRY</title>
<path fill="none" stroke="black" d="M504.18,-727C525.27,-727 547.29,-727 564.13,-727"/>
</g>
<!-- COUNTRY_tax_revenue -->
<g id="node24" class="node">
<title>COUNTRY_tax_revenue</title>
<ellipse fill="white" stroke="black" cx="433.79" cy="-673" rx="55.85" ry="18"/>
<text text-anchor="middle" x="433.79" y="-670.5" font-family="Courier,monospace" font-size="10.00">tax_revenue ?</text>
</g>
<!-- COUNTRY_tax_revenue&#45;&#45;COUNTRY -->
<g id="edge22" class="edge">
<title>COUNTRY_tax_revenue&#45;&#45;COUNTRY</title>
<path fill="none" stroke="black" d="M475.53,-685.14C490.1,-689.63 506.59,-694.87 521.5,-700 535.67,-704.88 551.27,-710.71 564.26,-715.71"/>
</g>
<!-- COUNTRY_tax_rate -->
<g id="node25" class="node">
<title>COUNTRY_tax_rate</title>
<ellipse fill="white" stroke="black" cx="433.79" cy="-619" rx="45.15" ry="18"/>
<text text-anchor="middle" x="433.79" y="-616.5" font-family="Courier,monospace" font-size="10.00">tax_rate ?</text>
</g>
<!-- COUNTRY_tax_rate&#45;&#45;COUNTRY -->
<g id="edge23" class="edge">
<title>COUNTRY_tax_rate&#45;&#45;COUNTRY</title>
<path fill="none" stroke="black" d="M475.2,-626.71C490.52,-630.84 507.6,-637 521.5,-646 547,-662.52 568.86,-690.57 581.47,-708.94"/>
</g>
<!-- COUNTRY_pop -->
<g id="node26" class="node">
<title>COUNTRY_pop</title>
<ellipse fill="white" stroke="black" cx="433.79" cy="-565" rx="27.84" ry="18"/>
<text text-anchor="middle" x="433.79" y="-562.5" font-family="Courier,monospace" font-size="10.00">pop ?</text>
</g>
<!-- COUNTRY_pop&#45;&#45;COUNTRY -->
<g id="edge24" class="edge">
<title>COUNTRY_pop&#45;&#45;COUNTRY</title>
<path fill="none" stroke="black" d="M461.2,-567.85C479.82,-571.05 504.39,-577.8 521.5,-592 559.25,-623.34 579.78,-679.88 588.26,-708.84"/>
</g>
<!-- COUNTRY_lat -->
<g id="node27" class="node">
<title>COUNTRY_lat</title>
<ellipse fill="white" stroke="black" cx="433.79" cy="-511" rx="27.84" ry="18"/>
<text text-anchor="middle" x="433.79" y="-508.5" font-family="Courier,monospace" font-size="10.00">lat ?</text>
</g>
<!-- COUNTRY_lat&#45;&#45;COUNTRY -->
<g id="edge25" class="edge">
<title>COUNTRY_lat&#45;&#45;COUNTRY</title>
<path fill="none" stroke="black" d="M461.36,-513.16C480.3,-516.02 505.2,-522.65 521.5,-538 571.68,-585.27 586.95,-671.33 591.34,-708.78"/>
</g>
<!-- COUNTRY_long -->
<g id="node28" class="node">
<title>COUNTRY_long</title>
<ellipse fill="white" stroke="black" cx="433.79" cy="-457" rx="31.4" ry="18"/>
<text text-anchor="middle" x="433.79" y="-454.5" font-family="Courier,monospace" font-size="10.00">long ?</text>
</g>
<!-- COUNTRY_long&#45;&#45;COUNTRY -->
<g id="edge26" class="edge">
<title>COUNTRY_long&#45;&#45;COUNTRY</title>
<path fill="none" stroke="black" d="M464.8,-459.5C483.33,-462.53 506.38,-469.24 521.5,-484 585.69,-546.67 592.98,-663.77 593.29,-708.75"/>
</g>
<!-- CITIZENSHIP_OF&#45;&#45;COUNTRY -->
<g id="edge28" class="edge">
<title>CITIZENSHIP_OF&#45;&#45;COUNTRY</title>
<path fill="none" stroke="black" d="M481.3,-353.93C495.69,-358.36 510.61,-365.27 521.5,-376 569.67,-423.47 587.6,-643.64 591.9,-708.79"/>
<text text-anchor="middle" x="543" y="-422" font-family="Courier,monospace" font-size="10.00">1</text>
</g>
<!-- RESIDES_IN&#45;&#45;COUNTRY -->
<g id="edge30" class="edge">
<title>RESIDES_IN&#45;&#45;COUNTRY</title>
<path fill="none" stroke="black" d="M478.4,-408.65C493.58,-412.52 509.73,-419.04 521.5,-430 563.01,-468.69 585.08,-650.24 591.21,-708.76"/>
<text text-anchor="middle" x="543" y="-475" font-family="Courier,monospace" font-size="10.00">1</text>
</g>
<!-- RESIDES_IN_city_of_residence -->
<g id="node31" class="node">
<title>RESIDES_IN_city_of_residence</title>
<ellipse fill="white" stroke="black" cx="225.96" cy="-509" rx="77.23" ry="18"/>
<text text-anchor="middle" x="225.96" y="-506.5" font-family="Courier,monospace" font-size="10.00">city_of_residence ?</text>
</g>
<!-- RESIDES_IN_city_of_residence&#45;&#45;RESIDES_IN -->
<g id="edge31" class="edge">
<title>RESIDES_IN_city_of_residence&#45;&#45;RESIDES_IN</title>
<path fill="none" stroke="black" d="M277.58,-495.38C286.5,-491.8 295.38,-487.38 303.08,-482 327.65,-464.81 321.17,-446.71 346.08,-430 360.35,-420.43 378.19,-414.11 393.97,-410.01"/>
</g>
<!-- RESIDES_IN_residence_state -->
<g id="node32" class="node">
<title>RESIDES_IN_residence_state</title>
<ellipse fill="white" stroke="black" cx="225.96" cy="-455" rx="70.1" ry="18"/>
<text text-anchor="middle" x="225.96" y="-452.5" font-family="Courier,monospace" font-size="10.00">residence_state ?</text>
</g>
<!-- RESIDES_IN_residence_state&#45;&#45;RESIDES_IN -->
<g id="edge32" class="edge">
<title>RESIDES_IN_residence_state&#45;&#45;RESIDES_IN</title>
<path fill="none" stroke="black" d="M276.52,-442.48C314.59,-432.86 366.11,-419.84 399.4,-411.43"/>
</g>
<!-- RESIDES_IN_residence_region -->
<g id="node33" class="node">
<title>RESIDES_IN_residence_region</title>
<ellipse fill="white" stroke="black" cx="225.96" cy="-401" rx="73.67" ry="18"/>
<text text-anchor="middle" x="225.96" y="-398.5" font-family="Courier,monospace" font-size="10.00">residence_region ?</text>
</g>
<!-- RESIDES_IN_residence_region&#45;&#45;RESIDES_IN -->
<g id="edge33" class="edge">
<title>RESIDES_IN_residence_region&#45;&#45;RESIDES_IN</title>
<path fill="none" stroke="black" d="M299.53,-401.71C323.02,-401.93 348.83,-402.18 371.43,-402.4"/>
</g>
</g>
</svg>
